<?xml version="1.0" standalone="no"?>
<!DOCTYPE svg PUBLIC "-//W3C//DTD SVG 20010904//EN"
 "http://www.w3.org/TR/2001/REC-SVG-20010904/DTD/svg10.dtd">
<svg version="1.0" xmlns="http://www.w3.org/2000/svg"
 width="512.000000pt" height="512.000000pt" viewBox="0 0 512.000000 512.000000"
 preserveAspectRatio="xMidYMid meet">

<g transform="translate(0.000000,512.000000) scale(0.100000,-0.100000)"
fill="#000000" stroke="none">
<path d="M2402 4710 c-226 -59 -409 -243 -466 -466 -33 -127 -17 -300 38 -420
l23 -51 -103 -32 c-689 -210 -1258 -777 -1473 -1466 -57 -182 -101 -446 -101
-605 l0 -57 -88 -5 c-94 -6 -131 -19 -174 -65 -48 -50 -58 -90 -58 -235 0
-157 11 -234 49 -345 77 -225 272 -428 491 -512 167 -64 50 -61 2020 -61 1973
0 1853 -4 2023 62 106 41 208 111 299 206 169 177 238 365 238 648 0 147 -10
186 -58 237 -15 16 -40 36 -57 45 -28 16 -197 17 -2157 20 l-2128 2 0 58 c0
32 5 96 10 142 105 845 753 1504 1588 1615 788 105 1561 -313 1903 -1029 74
-155 129 -196 245 -183 95 10 167 93 168 193 1 89 -131 340 -288 548 -282 375
-703 667 -1149 797 l-75 21 24 52 c37 82 54 163 54 261 0 184 -57 322 -185
451 -166 166 -394 231 -613 174z m286 -417 c66 -41 105 -107 110 -188 5 -78
-10 -126 -56 -177 -53 -59 -104 -82 -182 -82 -184 0 -297 186 -214 352 45 91
125 135 232 128 47 -3 75 -11 110 -33z m2032 -3091 c0 -4 -7 -34 -15 -65 -43
-167 -165 -289 -330 -333 -41 -11 -373 -14 -1816 -14 -1595 0 -1771 2 -1820
16 -169 50 -281 165 -324 331 -8 31 -15 61 -15 65 0 4 972 8 2160 8 1188 0
2160 -4 2160 -8z"/>
<path d="M2340 3005 c-381 -65 -703 -262 -929 -569 -92 -125 -113 -187 -91
-268 40 -141 238 -186 336 -76 12 12 41 52 64 88 55 82 176 204 259 259 87 59
229 124 327 150 45 12 133 25 196 30 121 9 155 20 200 68 96 100 67 257 -57
314 -48 22 -188 24 -305 4z"/>
</g>
</svg>
